<svg width="118" height="22" viewBox="0 0 118 22" fill="none" xmlns="http://www.w3.org/2000/svg">
<path d="M10.712 17H0.44V0.199999H4.04V13.904H10.712V17ZM18.0845 17.144C13.9805 17.144 11.5085 14.672 11.5085 10.856C11.5085 7.016 14.0285 4.52 17.8445 4.52C21.5405 4.52 24.0365 6.824 24.0845 10.448C24.0845 10.808 24.0605 11.216 23.9885 11.6H15.0365V11.768C15.1085 13.52 16.2365 14.576 17.9405 14.576C19.3085 14.576 20.2685 13.976 20.5565 12.824H23.8925C23.5085 15.224 21.3725 17.144 18.0845 17.144ZM15.1085 9.392H20.6765C20.4365 7.88 19.4045 7.04 17.8685 7.04C16.4045 7.04 15.3005 7.928 15.1085 9.392ZM37.6938 14.144H38.0778V17H36.3498C34.5978 17 34.0458 16.16 34.0698 14.984C33.2058 16.352 31.9578 17.144 30.0378 17.144C27.3738 17.144 25.4538 15.872 25.4538 13.52C25.4538 10.904 27.4218 9.416 31.1178 9.416H33.5658V8.816C33.5658 7.712 32.7738 6.992 31.3578 6.992C30.0378 6.992 29.1498 7.592 29.0058 8.504H25.7418C25.9818 6.104 28.1898 4.52 31.4538 4.52C34.9098 4.52 36.9018 6.056 36.9018 9.008V13.376C36.9018 14.024 37.1658 14.144 37.6938 14.144ZM33.5658 11.912V11.672H31.0938C29.6778 11.672 28.8618 12.248 28.8618 13.28C28.8618 14.144 29.5578 14.696 30.6858 14.696C32.4618 14.696 33.5418 13.592 33.5658 11.912ZM46.3229 4.664H46.8989V7.736H45.5549C43.5389 7.736 42.7709 9.08 42.7709 10.952V17H39.3869V4.664H42.4589L42.7709 6.512C43.4429 5.408 44.4029 4.664 46.3229 4.664ZM55.4904 4.52C58.1544 4.52 60.4344 5.936 60.4344 10.16V17H57.0504V10.496C57.0504 8.408 56.2584 7.304 54.5544 7.304C52.8024 7.304 51.7944 8.552 51.7944 10.688V17H48.4104V4.664H51.3624L51.6744 6.2C52.4664 5.24 53.5944 4.52 55.4904 4.52ZM62.8306 17V0.199999H74.1106V3.296H66.4306V7.064H72.6706V10.016H66.4306V13.904H74.3746V17H62.8306ZM84.8077 6.2V0.199999H88.1917V17H85.2397L84.9037 15.296C84.0877 16.352 82.8877 17.144 81.1117 17.144C77.7997 17.144 75.3757 14.72 75.3757 10.808C75.3757 6.992 77.7997 4.52 81.0877 4.52C82.7917 4.52 84.0157 5.192 84.8077 6.2ZM81.8557 14.384C83.7037 14.384 84.8557 12.944 84.8557 10.856C84.8557 8.744 83.7037 7.28 81.8557 7.28C80.0077 7.28 78.8317 8.72 78.8317 10.832C78.8317 12.944 80.0077 14.384 81.8557 14.384ZM99.623 6.368L99.911 4.664H102.887V16.64C102.887 19.688 101.015 21.944 96.287 21.944C92.855 21.944 90.503 20.384 90.335 17.528H93.743C94.055 18.704 94.991 19.376 96.551 19.376C98.447 19.376 99.575 18.44 99.575 16.52V15.224C98.759 16.256 97.535 16.928 95.807 16.928C92.495 16.952 90.071 14.528 90.071 10.712C90.071 6.944 92.495 4.496 95.783 4.496C97.559 4.496 98.807 5.288 99.623 6.368ZM96.551 14.216C98.399 14.216 99.551 12.8 99.551 10.76C99.551 8.696 98.399 7.232 96.551 7.232C94.703 7.232 93.527 8.672 93.527 10.736C93.527 12.8 94.703 14.216 96.551 14.216ZM111.342 17.144C107.238 17.144 104.766 14.672 104.766 10.856C104.766 7.016 107.286 4.52 111.102 4.52C114.798 4.52 117.294 6.824 117.342 10.448C117.342 10.808 117.318 11.216 117.246 11.6H108.294V11.768C108.366 13.52 109.494 14.576 111.198 14.576C112.566 14.576 113.526 13.976 113.814 12.824H117.15C116.766 15.224 114.63 17.144 111.342 17.144ZM108.366 9.392H113.934C113.694 7.88 112.662 7.04 111.126 7.04C109.662 7.04 108.558 7.928 108.366 9.392Z" fill="#004C97"/>
</svg>
