<svg width="5" height="10" viewBox="0 0 5 10" fill="none" xmlns="http://www.w3.org/2000/svg">
<path d="M0.733465 6.41313L3.79346 9.47313C3.91837 9.5973 4.08734 9.66699 4.26347 9.66699C4.43959 9.66699 4.60856 9.5973 4.73347 9.47313C4.79595 9.41116 4.84555 9.33742 4.87939 9.25618C4.91324 9.17494 4.93066 9.0878 4.93066 8.9998C4.93066 8.91179 4.91324 8.82465 4.87939 8.74341C4.84555 8.66217 4.79595 8.58844 4.73347 8.52646L1.6668 5.47313C1.60431 5.41115 1.55472 5.33742 1.52087 5.25618C1.48702 5.17494 1.4696 5.0878 1.4696 4.9998C1.4696 4.91179 1.48702 4.82465 1.52087 4.74341C1.55472 4.66217 1.60431 4.58844 1.6668 4.52646L4.73347 1.47313C4.859 1.34848 4.92988 1.17906 4.9305 1.00215C4.93113 0.825244 4.86145 0.655332 4.7368 0.529796C4.61215 0.40426 4.44273 0.333383 4.26582 0.332757C4.08891 0.332132 3.919 0.401811 3.79347 0.526462L0.733465 3.58646C0.35893 3.96146 0.148557 4.46979 0.148557 4.9998C0.148557 5.5298 0.35893 6.03813 0.733465 6.41313Z" fill="#004C97"/>
</svg>
