<svg width="12" height="12" viewBox="0 0 12 12" fill="none" xmlns="http://www.w3.org/2000/svg">
<path d="M11.4266 0.574953C11.0866 0.235552 10.6259 0.0449219 10.1456 0.0449219C9.66521 0.0449219 9.20449 0.235552 8.86457 0.574953L0.732569 8.70695C0.499694 8.93852 0.31505 9.21396 0.189318 9.51735C0.0635856 9.82074 -0.000737953 10.146 6.85258e-05 10.4745V11.501C6.85258e-05 11.6336 0.052747 11.7607 0.146515 11.8545C0.240283 11.9483 0.36746 12.001 0.500069 12.001H1.52657C1.85495 12.0019 2.18025 11.9377 2.48365 11.812C2.78704 11.6864 3.0625 11.5018 3.29407 11.269L11.4266 3.13645C11.7658 2.79655 11.9564 2.33594 11.9564 1.8557C11.9564 1.37547 11.7658 0.914856 11.4266 0.574953ZM2.58707 10.562C2.30507 10.8421 1.92405 10.9998 1.52657 11.001H1.00007V10.4745C0.999563 10.2774 1.03815 10.0822 1.11359 9.90018C1.18903 9.71814 1.29983 9.55288 1.43957 9.41395L7.61107 3.24245L8.76107 4.39245L2.58707 10.562ZM10.7191 2.42945L9.46607 3.68295L8.31607 2.53545L9.56957 1.28195C9.64508 1.20661 9.73469 1.14687 9.83329 1.10616C9.93188 1.06544 10.0375 1.04455 10.1442 1.04466C10.2509 1.04478 10.3565 1.06591 10.455 1.10683C10.5535 1.14776 10.643 1.20769 10.7183 1.2832C10.7937 1.35871 10.8534 1.44832 10.8941 1.54692C10.9348 1.64552 10.9557 1.75117 10.9556 1.85784C10.9555 1.96451 10.9344 2.07011 10.8934 2.16862C10.8525 2.26713 10.7926 2.35661 10.7171 2.43195L10.7191 2.42945Z" fill="#333333" fill-opacity="0.8"/>
</svg>
