<svg width="24" height="24" viewBox="0 0 24 24" fill="none" xmlns="http://www.w3.org/2000/svg">
<g clip-path="url(#clip0_16_1078)">
<path d="M21.1549 19.7413C22.9914 17.5802 23.9998 14.8365 23.9998 12.0003C23.9998 9.16423 22.9914 6.4205 21.1549 4.25935L22.0149 3.39935C22.2024 3.21171 22.3077 2.95727 22.3076 2.69199C22.3075 2.42672 22.202 2.17236 22.0144 1.98485C21.8267 1.79734 21.5723 1.69205 21.307 1.69215C21.0418 1.69224 20.7874 1.79771 20.5999 1.98535L19.7399 2.84535C17.5787 1.00878 14.835 0.000411987 11.9989 0.000411987C9.16276 0.000411987 6.41902 1.00878 4.25788 2.84535L3.39788 1.98535C3.20915 1.80332 2.95647 1.7027 2.69427 1.70516C2.43208 1.70762 2.18133 1.81297 1.99606 1.99851C1.81078 2.18405 1.70579 2.43494 1.70369 2.69714C1.7016 2.95934 1.80258 3.21188 1.98488 3.40035L2.84488 4.26035C1.0083 6.4215 -6.10352e-05 9.16523 -6.10352e-05 12.0013C-6.10352e-05 14.8375 1.0083 17.5812 2.84488 19.7423L1.98488 20.6023C1.88943 20.6947 1.81333 20.8051 1.76101 20.9271C1.70869 21.0491 1.6812 21.1804 1.68014 21.3132C1.67908 21.4459 1.70447 21.5776 1.75484 21.7005C1.80521 21.8233 1.87954 21.9349 1.9735 22.0287C2.06746 22.1226 2.17916 22.1967 2.30209 22.2469C2.42502 22.2971 2.55672 22.3223 2.6895 22.3211C2.82227 22.3198 2.95347 22.2922 3.07544 22.2397C3.19741 22.1872 3.3077 22.1109 3.39988 22.0153L4.25988 21.1553C6.42103 22.9919 9.16476 24.0003 12.0009 24.0003C14.837 24.0003 17.5807 22.9919 19.7419 21.1553L20.6019 22.0153C20.7906 22.1974 21.0433 22.298 21.3055 22.2955C21.5677 22.2931 21.8184 22.1877 22.0037 22.0022C22.189 21.8166 22.294 21.5658 22.2961 21.3036C22.2981 21.0414 22.1972 20.7888 22.0149 20.6003L21.1549 19.7413ZM21.9999 12.0003C22.0017 14.3068 21.2021 16.5423 19.7379 18.3243L16.1669 14.7533C16.71 13.9379 16.9998 12.9801 16.9998 12.0003C16.9998 11.0206 16.71 10.0628 16.1669 9.24735L19.7379 5.67635C21.2021 7.45842 22.0017 9.69388 21.9999 12.0003ZM8.99988 12.0003C8.99988 11.407 9.17582 10.827 9.50547 10.3336C9.83511 9.84029 10.3036 9.45577 10.8518 9.22871C11.4 9.00165 12.0032 8.94224 12.5851 9.05799C13.1671 9.17375 13.7016 9.45947 14.1212 9.87903C14.5408 10.2986 14.8265 10.8331 14.9422 11.4151C15.058 11.997 14.9986 12.6002 14.7715 13.1484C14.5445 13.6966 14.1599 14.1651 13.6666 14.4948C13.1732 14.8244 12.5932 15.0003 11.9999 15.0003C11.2042 15.0003 10.4412 14.6843 9.87856 14.1217C9.31595 13.5591 8.99988 12.796 8.99988 12.0003ZM11.9999 2.00035C14.3063 1.99851 16.5418 2.7981 18.3239 4.26235L14.7529 7.83335C13.9375 7.29021 12.9796 7.0004 11.9999 7.0004C11.0201 7.0004 10.0623 7.29021 9.24688 7.83335L5.67588 4.26235C7.45795 2.7981 9.69341 1.99851 11.9999 2.00035ZM1.99988 12.0003C1.99804 9.69388 2.79763 7.45842 4.26188 5.67635L7.83288 9.24735C7.28974 10.0628 6.99993 11.0206 6.99993 12.0003C6.99993 12.9801 7.28974 13.9379 7.83288 14.7533L4.26188 18.3243C2.79763 16.5423 1.99804 14.3068 1.99988 12.0003ZM11.9999 22.0003C9.69341 22.0022 7.45795 21.2026 5.67588 19.7383L9.24688 16.1673C10.0623 16.7105 11.0201 17.0003 11.9999 17.0003C12.9796 17.0003 13.9375 16.7105 14.7529 16.1673L18.3239 19.7383C16.5418 21.2026 14.3063 22.0022 11.9999 22.0003Z" fill="#374957"/>
</g>
<defs>
<clipPath id="clip0_16_1078">
<rect width="24" height="24" fill="white"/>
</clipPath>
</defs>
</svg>
